<svg xmlns="http://www.w3.org/2000/svg" viewBox="125.32 96.76 250.1 300.84">
<g>
<path d="M 233.00,397.39 L 226.79,397.04 L 213.76,395.81 L 210.56,395.47 L 204.36,394.72 L 201.32,394.33 L 195.68,393.52 L 192.96,393.11 L 188.17,392.27 L 187.03,392.07 L 184.98,391.66 L 183.99,391.45 L 182.25,391.05 L 181.43,390.85 L 180.04,390.47 L 179.39,390.28 L 178.39,389.92 L 177.94,389.74 L 177.36,389.41 L 177.00,388.94 L 177.00,388.82 L 177.57,388.44 L 177.94,388.22 L 179.13,387.69 L 179.79,387.41 L 181.43,386.80 L 184.25,385.88 L 191.50,383.67 L 187.50,382.77 L 185.31,382.27 L 181.14,381.29 L 179.09,380.80 L 175.19,379.82 L 171.37,378.84 L 164.51,376.89 L 161.21,375.90 L 155.35,373.92 L 152.53,372.92 L 147.59,370.88 L 145.23,369.84 L 141.13,367.70 L 139.18,366.62 L 135.86,364.35 L 134.29,363.20 L 131.68,360.78 L 128.46,356.94 L 127.43,355.45 L 126.13,352.32 L 125.61,350.74 L 125.33,347.54 L 125.32,345.96 L 126.07,342.89 L 126.32,342.14 L 127.01,340.70 L 128.33,338.63 L 131.16,334.92 L 135.04,339.21 L 135.65,339.89 L 136.68,341.21 L 137.16,341.85 L 137.91,343.09 L 138.24,343.68 L 138.68,344.78 L 138.96,346.22 L 138.97,347.02 L 139.54,348.68 L 139.92,349.52 L 141.16,351.24 L 141.86,352.10 L 143.71,353.82 L 144.71,354.68 L 147.11,356.36 L 148.37,357.20 L 151.25,358.81 L 152.74,359.60 L 156.03,361.08 L 157.72,361.81 L 161.37,363.13 L 167.16,364.89 L 170.15,365.68 L 175.97,367.10 L 178.86,367.78 L 184.55,368.99 L 190.23,370.14 L 201.69,371.86 L 204.60,372.25 L 210.58,372.90 L 213.60,373.21 L 219.90,373.70 L 223.10,373.93 L 229.82,374.28 L 240.50,374.67 L 244.80,374.79 L 252.99,374.86 L 257.02,374.87 L 264.73,374.73 L 268.54,374.63 L 275.87,374.27 L 279.49,374.05 L 286.52,373.46 L 290.01,373.13 L 296.84,372.29 L 300.24,371.84 L 306.95,370.75 L 310.30,370.17 L 317.00,368.83 L 327.11,366.51 L 330.29,365.72 L 335.96,364.04 L 338.67,363.17 L 343.42,361.32 L 345.68,360.38 L 349.55,358.33 L 351.37,357.29 L 354.39,355.03 L 355.79,353.87 L 357.98,351.36 L 358.98,350.08 L 360.38,347.30 L 360.99,345.88 L 361.64,342.80 L 361.79,337.83 L 361.73,336.98 L 361.68,335.57 L 361.67,334.91 L 361.72,333.88 L 361.76,333.42 L 361.95,332.77 L 362.05,332.49 L 362.38,332.21 L 362.56,332.11 L 363.04,332.19 L 363.30,332.27 L 363.95,332.70 L 364.30,332.95 L 365.15,333.72 L 366.65,335.25 L 367.88,336.56 L 369.72,338.77 L 370.54,339.82 L 371.67,341.70 L 372.15,342.62 L 372.70,344.41 L 373.00,347.26 L 373.00,347.86 L 372.82,349.20 L 372.71,349.88 L 372.32,351.34 L 371.88,352.81 L 370.50,355.86 L 369.74,357.37 L 367.88,360.15 L 364.80,363.54 L 363.81,364.37 L 361.28,366.09 L 359.93,366.95 L 356.74,368.69 L 355.07,369.56 L 351.33,371.28 L 349.40,372.14 L 345.20,373.80 L 343.05,374.63 L 338.50,376.20 L 336.19,376.97 L 331.38,378.42 L 316.50,382.07 L 315.66,382.23 L 314.32,382.52 L 313.71,382.66 L 312.83,382.92 L 312.45,383.05 L 312.07,383.31 L 311.94,383.44 L 312.08,383.73 L 312.22,383.88 L 312.92,384.23 L 313.33,384.41 L 314.61,384.85 L 315.32,385.09 L 317.20,385.65 L 320.74,386.67 L 321.85,386.98 L 323.50,387.52 L 324.24,387.78 L 325.17,388.22 L 325.55,388.43 L 325.81,388.79 L 325.47,389.27 L 325.18,389.44 L 323.89,389.85 L 323.14,390.07 L 321.05,390.58 L 319.92,390.84 L 317.20,391.40 L 315.78,391.69 L 312.59,392.29 L 309.31,392.88 L 302.04,394.05 L 291.34,395.50 L 290.56,395.59 L 288.76,395.77 L 287.82,395.86 L 285.74,396.03 L 283.59,396.20 L 278.63,396.50 L 276.06,396.65 L 270.52,396.92 L 267.71,397.04 L 261.93,397.24 L 259.04,397.34 L 253.36,397.47 L 250.57,397.53 L 245.35,397.58 L 242.82,397.60 L 238.39,397.56 L 237.34,397.55 L 235.46,397.50 L 234.56,397.47 M 228.00,364.92 L 223.73,364.72 L 215.36,364.09 L 211.22,363.73 L 203.23,362.81 L 199.29,362.31 L 191.80,361.13 L 188.13,360.50 L 181.28,359.09 L 177.94,358.35 L 171.86,356.74 L 168.93,355.91 L 163.75,354.12 L 162.52,353.66 L 160.25,352.72 L 159.15,352.25 L 157.15,351.27 L 156.19,350.78 L 154.48,349.78 L 152.26,348.25 L 151.70,347.82 L 151.09,347.25 L 150.88,347.00 L 151.13,346.72 L 151.25,346.66 L 151.71,346.58 L 151.97,346.54 L 152.73,346.49 L 153.15,346.47 L 154.23,346.45 L 156.26,346.41 L 158.32,346.39 L 161.99,345.83 L 166.72,344.27 L 167.67,343.81 L 169.00,343.21 L 169.59,342.97 L 170.34,342.81 L 170.67,342.78 L 171.06,343.03 L 171.47,343.86 L 171.58,344.21 L 172.06,345.06 L 172.34,345.50 L 173.09,346.50 L 173.91,347.51 L 176.11,349.73 L 177.26,350.83 L 179.77,352.86 L 183.33,355.17 L 184.49,355.76 L 187.02,356.66 L 188.31,357.05 L 191.02,357.57 L 192.39,357.78 L 195.17,357.93 L 196.56,357.96 L 199.30,357.75 L 200.66,357.61 L 203.25,357.06 L 204.51,356.74 L 206.84,355.87 L 207.96,355.39 L 209.91,354.20 L 212.29,352.06 L 214.65,349.27 L 221.57,350.82 L 222.24,350.97 L 223.87,351.24 L 224.74,351.37 L 226.75,351.59 L 227.79,351.70 L 230.11,351.90 L 231.31,351.99 L 233.89,352.14 L 236.53,352.28 L 242.35,352.46 L 245.32,352.53 L 251.49,352.55 L 254.58,352.54 L 260.67,352.42 L 263.66,352.33 L 269.23,352.06 L 270.57,351.98 L 273.08,351.80 L 274.30,351.70 L 276.53,351.48 L 277.61,351.36 L 279.51,351.11 L 281.93,350.68 L 283.15,350.42 L 285.31,349.91 L 286.34,349.66 L 288.15,349.17 L 289.01,348.92 L 290.52,348.42 L 291.24,348.16 L 292.50,347.62 L 293.71,347.07 L 295.57,345.77 L 297.93,343.37 L 298.53,342.60 L 299.32,341.67 L 299.68,341.31 L 300.26,341.31 L 300.40,341.38 L 300.71,341.71 L 300.87,341.92 L 301.25,342.54 L 301.44,342.89 L 301.93,343.83 L 302.82,345.59 L 303.36,346.67 L 305.00,348.96 L 305.89,350.11 L 308.01,352.33 L 309.10,353.40 L 311.37,355.24 L 314.62,357.24 L 315.14,357.47 L 315.98,358.06 L 316.37,358.37 L 316.87,358.97 L 317.07,359.26 L 317.11,359.70 L 316.52,360.00 L 316.49,360.00 L 316.18,360.04 L 315.98,360.07 L 315.37,360.16 L 314.69,360.26 L 312.58,360.58 L 311.42,360.77 L 308.57,361.22 L 303.77,361.99 L 303.11,362.10 L 301.49,362.32 L 300.63,362.44 L 298.67,362.67 L 297.64,362.78 L 295.39,363.02 L 294.23,363.14 L 291.74,363.37 L 289.19,363.61 L 283.62,364.07 L 280.79,364.29 L 274.96,364.71 L 272.05,364.90 L 266.37,365.24 L 263.60,365.40 L 258.51,365.64 L 257.30,365.69 L 255.05,365.77 L 253.97,365.80 L 252.01,365.85 L 251.08,365.87 L 249.47,365.87 L 247.50,365.83 L 247.29,365.82 L 246.56,365.79 L 246.15,365.77 L 245.03,365.72 L 244.43,365.69 L 243.00,365.62 L 242.24,365.59 L 240.53,365.51 L 238.77,365.42 L 234.64,365.23 L 232.52,365.13 M 318.10,352.36 L 316.39,351.51 L 313.48,349.41 L 312.12,348.31 L 309.98,345.82 L 309.02,344.54 L 307.77,341.80 L 307.00,337.54 L 307.00,336.40 L 307.40,334.05 L 307.53,333.50 L 307.84,332.56 L 308.38,331.50 L 308.71,331.04 L 309.22,330.49 L 309.47,330.28 L 309.99,330.24 L 310.28,330.28 L 311.08,330.80 L 312.87,332.23 L 313.24,332.55 L 314.26,333.21 L 314.80,333.55 L 316.07,334.21 L 317.40,334.87 L 320.47,336.07 L 322.02,336.64 L 325.05,337.46 L 325.78,337.63 L 327.10,337.86 L 328.82,338.00 L 329.10,338.00 L 330.10,338.26 L 330.66,338.43 L 332.10,338.98 L 337.17,341.35 L 338.91,342.27 L 342.80,344.09 L 343.73,344.51 L 345.41,345.22 L 347.44,345.99 L 351.38,347.28 L 348.44,349.63 L 347.51,350.37 L 345.36,351.64 L 344.25,352.24 L 341.82,353.20 L 340.57,353.64 L 337.93,354.29 L 336.60,354.58 L 333.84,354.91 L 332.46,355.03 L 329.68,355.04 L 328.30,355.00 L 325.58,354.66 L 324.24,354.45 L 321.68,353.78 L 320.43,353.39 M 191.50,350.07 L 190.39,349.80 L 188.02,348.97 L 186.84,348.51 L 184.55,347.42 L 183.44,346.86 L 181.54,345.66 L 179.44,343.93 L 179.01,343.46 L 178.52,342.84 L 178.34,342.57 L 178.39,342.26 L 178.50,342.13 L 179.21,342.02 L 181.10,341.96 L 182.23,341.94 L 184.66,341.55 L 185.89,341.29 L 188.40,340.47 L 189.64,340.00 L 192.06,338.80 L 195.42,336.63 L 198.83,334.03 L 204.16,336.39 L 205.63,337.04 L 208.45,338.23 L 209.09,338.50 L 210.15,338.93 L 211.25,339.34 L 211.89,339.56 L 212.61,340.15 L 212.87,340.48 L 212.83,341.36 L 212.70,341.84 L 211.87,343.09 L 209.70,345.50 L 208.53,346.67 L 205.88,348.43 L 204.51,349.21 L 201.51,350.19 L 199.98,350.57 L 196.69,350.74 L 195.01,350.72 M 239.00,349.35 L 236.73,349.01 L 232.77,348.31 L 230.88,347.96 L 227.64,347.22 L 226.11,346.85 L 223.52,346.06 L 220.30,344.80 L 219.31,344.33 L 217.95,343.60 L 217.37,343.24 L 216.66,342.50 L 216.37,342.11 L 216.11,341.10 L 216.00,338.96 L 216.00,338.01 L 215.85,336.68 L 215.70,336.07 L 214.84,335.01 L 214.55,334.74 L 213.75,334.16 L 213.30,333.85 L 212.12,333.16 L 211.48,332.79 L 209.87,331.91 L 206.87,330.32 L 204.85,329.26 L 200.90,326.81 L 198.94,325.53 L 195.11,322.67 L 193.21,321.19 L 189.53,317.94 L 187.71,316.28 L 184.21,312.68 L 182.48,310.84 L 179.19,306.93 L 177.57,304.93 L 174.51,300.73 L 173.01,298.59 L 170.22,294.12 L 166.36,287.17 L 165.36,285.21 L 163.57,281.31 L 162.70,279.37 L 161.18,275.46 L 160.45,273.50 L 159.18,269.56 L 158.58,267.58 L 157.57,263.55 L 157.09,261.53 L 156.32,257.39 L 155.96,255.31 L 155.42,251.03 L 155.18,248.87 L 154.87,244.42 L 154.66,237.50 L 154.64,235.75 L 154.73,232.72 L 154.81,231.28 L 155.12,228.78 L 155.31,227.59 L 155.92,225.51 L 156.27,224.52 L 157.24,222.76 L 157.77,221.91 L 159.17,220.36 L 159.93,219.60 L 161.82,218.14 L 162.84,217.42 L 165.29,215.95 L 169.69,213.63 L 170.47,213.24 L 172.32,212.44 L 173.29,212.03 L 175.42,211.24 L 177.59,210.45 L 182.16,209.07 L 183.27,208.75 L 185.36,208.21 L 186.38,207.97 L 188.18,207.60 L 189.03,207.44 L 190.39,207.28 L 191.78,207.33 L 192.12,207.42 L 192.51,207.59 L 192.66,207.67 L 192.65,207.85 L 192.59,207.94 L 192.15,208.16 L 191.00,208.56 L 190.50,208.72 L 189.03,209.31 L 188.23,209.65 L 186.31,210.54 L 185.30,211.02 L 183.09,212.12 L 181.96,212.69 L 179.62,213.91 L 177.29,215.14 L 172.99,217.58 L 172.00,218.16 L 170.33,219.19 L 168.45,220.47 L 167.78,220.98 L 166.75,222.03 L 166.28,222.56 L 165.63,223.64 L 165.36,224.19 L 165.09,225.28 L 165.01,225.83 L 165.12,226.93 L 165.23,227.47 L 165.72,228.54 L 166.02,229.07 L 166.88,230.09 L 167.36,230.60 L 168.59,231.57 L 170.85,232.93 L 172.69,233.86 L 176.67,235.47 L 178.74,236.24 L 183.49,237.59 L 184.75,237.92 L 187.46,238.54 L 188.86,238.84 L 191.91,239.44 L 193.48,239.73 L 196.90,240.30 L 202.50,241.16 L 204.25,241.41 L 207.44,241.84 L 208.99,242.04 L 211.96,242.37 L 213.43,242.53 L 216.41,242.78 L 217.92,242.89 L 221.15,243.07 L 222.82,243.15 L 226.53,243.27 L 228.47,243.32 L 232.90,243.39 L 235.22,243.42 L 240.60,243.45 L 242.02,243.45 L 245.07,243.46 L 250.00,243.46 L 251.72,243.46 L 254.90,243.46 L 256.46,243.46 L 259.34,243.45 L 262.16,243.43 L 267.01,243.38 L 269.32,243.36 L 273.34,243.27 L 275.26,243.21 L 278.66,243.07 L 280.30,242.99 L 283.31,242.79 L 284.79,242.67 L 287.63,242.39 L 289.05,242.24 L 291.95,241.88 L 296.60,241.22 L 299.81,240.74 L 305.53,239.76 L 308.28,239.26 L 313.11,238.21 L 315.41,237.68 L 319.39,236.56 L 321.27,235.99 L 324.42,234.78 L 325.89,234.16 L 328.24,232.85 L 329.32,232.19 L 330.92,230.76 L 331.62,230.03 L 332.49,228.48 L 333.00,226.00 L 333.00,225.26 L 332.35,223.53 L 330.75,221.31 L 330.31,220.91 L 329.05,219.98 L 328.37,219.49 L 326.70,218.42 L 325.83,217.88 L 323.85,216.73 L 322.83,216.16 L 320.63,214.98 L 318.39,213.81 L 313.68,211.58 L 307.00,208.83 L 305.94,208.44 L 304.30,207.79 L 303.56,207.49 L 302.56,207.00 L 302.14,206.78 L 301.78,206.46 L 301.68,206.33 L 301.95,206.17 L 302.16,206.12 L 303.04,206.14 L 303.56,206.17 L 305.05,206.36 L 305.88,206.48 L 307.98,206.84 L 311.79,207.59 L 313.89,208.02 L 318.62,209.46 L 321.02,210.25 L 325.89,212.21 L 328.27,213.22 L 332.60,215.41 L 333.62,215.96 L 335.45,217.05 L 337.78,218.65 L 338.73,219.37 L 340.62,221.49 L 341.06,222.03 L 341.80,223.12 L 342.62,224.63 L 342.88,225.26 L 343.41,226.22 L 343.68,226.66 L 344.25,227.26 L 344.56,227.53 L 345.25,227.83 L 346.48,228.00 L 347.69,228.00 L 350.29,228.48 L 351.61,228.80 L 354.32,229.84 L 355.69,230.42 L 358.40,231.94 L 359.75,232.75 L 362.36,234.66 L 363.63,235.66 L 366.02,237.86 L 367.17,239.00 L 369.22,241.42 L 370.20,242.65 L 371.80,245.20 L 373.58,249.07 L 374.27,251.08 L 375.08,255.25 L 375.38,257.34 L 375.42,261.52 L 375.35,263.60 L 374.63,267.64 L 372.70,273.35 L 371.93,275.04 L 369.82,278.58 L 368.70,280.34 L 366.11,283.77 L 364.77,285.44 L 361.94,288.43 L 357.73,292.08 L 356.99,292.61 L 355.24,293.69 L 354.33,294.23 L 352.27,295.30 L 350.15,296.36 L 345.30,298.35 L 342.83,299.30 L 337.75,300.87 L 330.54,302.52 L 322.44,303.83 L 311.97,314.23 L 309.09,317.09 L 302.81,322.89 L 301.32,324.24 L 298.66,326.55 L 298.03,327.08 L 296.92,328.00 L 295.50,329.11 L 294.82,329.61 L 293.69,330.48 L 293.15,330.90 L 292.27,331.64 L 291.44,332.35 L 290.39,333.56 L 289.94,334.16 L 289.45,335.45 L 289.00,337.89 L 288.88,338.93 L 288.60,340.37 L 288.43,341.01 L 287.77,341.94 L 287.37,342.37 L 285.99,343.17 L 285.58,343.37 L 284.57,343.83 L 282.71,344.63 L 281.52,345.13 L 278.57,346.05 L 277.01,346.50 L 273.48,347.30 L 271.66,347.69 L 267.73,348.34 L 265.74,348.65 L 261.61,349.15 L 259.53,349.37 L 255.39,349.68 L 253.33,349.81 L 249.36,349.91 L 247.41,349.93 L 243.80,349.81 L 242.06,349.72 M 272.17,316.80 L 273.18,316.35 L 275.08,315.04 L 275.52,314.71 L 276.22,314.04 L 276.94,313.11 L 277.21,312.60 L 277.30,311.93 L 277.25,311.78 L 276.91,311.55 L 276.69,311.45 L 275.91,311.28 L 275.47,311.21 L 274.16,311.10 L 273.44,311.05 L 271.49,310.97 L 270.43,310.93 L 267.75,310.87 L 262.77,310.78 L 247.50,310.50 L 247.19,306.25 L 247.11,305.08 L 247.07,303.23 L 247.07,302.84 L 247.10,302.30 L 247.19,301.94 L 247.21,301.93 L 247.64,301.91 L 247.92,301.89 L 248.81,301.85 L 249.31,301.82 L 250.62,301.76 L 251.32,301.73 L 252.99,301.65 L 253.87,301.61 L 255.84,301.51 L 256.87,301.47 L 259.10,301.37 L 266.50,301.03 L 269.57,300.90 L 274.94,300.61 L 277.50,300.47 L 281.92,300.14 L 284.03,299.98 L 287.62,299.60 L 289.33,299.40 L 292.19,298.96 L 293.54,298.72 L 295.79,298.18 L 296.84,297.90 L 298.57,297.25 L 299.38,296.92 L 300.70,296.14 L 302.34,294.81 L 303.14,294.02 L 304.22,292.60 L 304.44,292.28 L 304.67,291.79 L 304.68,291.34 L 304.64,291.30 L 304.32,291.25 L 304.13,291.23 L 303.52,291.22 L 302.86,291.21 L 300.81,291.29 L 299.69,291.35 L 296.93,291.55 L 292.30,291.96 L 290.68,292.13 L 286.77,292.40 L 284.76,292.53 L 280.45,292.71 L 278.29,292.79 L 274.10,292.86 L 268.52,292.83 L 256.53,292.50 L 255.93,288.79 L 255.76,287.77 L 255.68,285.92 L 255.68,285.50 L 255.73,284.84 L 255.91,284.20 L 255.95,284.14 L 256.46,284.00 L 256.78,283.93 L 257.80,283.77 L 258.37,283.69 L 259.84,283.51 L 260.63,283.42 L 262.50,283.24 L 263.47,283.15 L 265.68,282.96 L 266.82,282.87 L 269.30,282.69 L 277.50,282.18 L 279.91,282.05 L 284.37,281.76 L 286.55,281.61 L 290.60,281.27 L 292.58,281.09 L 296.30,280.70 L 298.13,280.50 L 301.58,280.03 L 304.99,279.55 L 311.35,278.34 L 320.79,276.07 L 321.58,275.85 L 322.84,275.39 L 323.42,275.14 L 324.34,274.58 L 324.76,274.28 L 325.38,273.57 L 326.07,272.31 L 326.34,271.60 L 326.64,270.36 L 326.64,269.30 L 326.61,269.28 L 326.34,269.26 L 326.17,269.26 L 325.64,269.30 L 325.05,269.36 L 323.23,269.61 L 322.23,269.76 L 319.77,270.17 L 315.63,270.93 L 314.12,271.22 L 310.54,271.80 L 308.68,272.09 L 304.63,272.64 L 300.51,273.18 L 292.05,274.05 L 290.01,274.24 L 286.22,274.55 L 284.40,274.68 L 281.26,274.85 L 280.53,274.88 L 279.25,274.91 L 278.63,274.92 L 277.61,274.91 L 277.13,274.90 L 276.40,274.84 L 275.67,274.70 L 275.37,274.59 L 274.90,274.17 L 274.68,273.92 L 274.38,273.19 L 274.25,272.79 L 274.09,271.70 L 274.00,269.59 L 274.00,265.12 L 278.25,264.62 L 278.54,264.59 L 279.41,264.49 L 279.89,264.44 L 281.08,264.30 L 282.35,264.15 L 285.65,263.78 L 287.39,263.58 L 291.33,263.14 L 297.48,262.45 L 299.46,262.23 L 303.04,261.79 L 304.77,261.57 L 307.90,261.13 L 309.41,260.91 L 312.15,260.45 L 313.48,260.22 L 315.89,259.73 L 318.23,259.24 L 322.20,258.10 L 327.58,256.07 L 328.57,255.63 L 329.91,254.93 L 330.50,254.58 L 331.22,253.80 L 331.52,253.37 L 331.84,252.19 L 332.15,249.60 L 332.25,248.34 L 332.38,246.35 L 332.40,245.94 L 332.42,245.36 L 332.41,245.00 L 332.40,245.00 L 331.94,245.15 L 331.64,245.25 L 330.71,245.56 L 330.19,245.74 L 328.91,246.17 L 326.74,246.92 L 324.72,247.61 L 320.16,248.88 L 317.81,249.50 L 312.66,250.61 L 310.01,251.14 L 304.34,252.09 L 301.45,252.54 L 295.34,253.32 L 292.24,253.69 L 285.78,254.31 L 282.51,254.60 L 275.77,255.05 L 268.97,255.46 L 254.90,255.78 L 247.84,255.85 L 233.72,255.50 L 230.22,255.36 L 223.32,254.97 L 219.89,254.76 L 213.20,254.19 L 209.88,253.89 L 203.48,253.16 L 200.33,252.77 L 194.30,251.86 L 191.34,251.39 L 185.76,250.31 L 178.00,248.49 L 176.83,248.18 L 174.56,247.56 L 173.46,247.25 L 171.48,246.69 L 170.55,246.42 L 169.10,245.97 L 167.75,245.51 L 167.26,245.31 L 166.60,245.33 L 166.32,245.43 L 166.07,246.20 L 166.03,246.44 L 166.01,247.11 L 166.02,247.48 L 166.10,248.40 L 166.15,248.90 L 166.31,250.10 L 166.64,252.25 L 166.79,253.15 L 167.12,254.40 L 167.33,254.96 L 168.08,255.75 L 168.55,256.11 L 170.13,256.77 L 170.60,256.94 L 171.75,257.31 L 173.88,257.95 L 174.79,258.21 L 177.23,258.83 L 178.52,259.14 L 181.46,259.79 L 182.95,260.11 L 186.02,260.71 L 190.38,261.47 L 191.74,261.69 L 194.29,262.13 L 195.51,262.34 L 197.62,262.74 L 198.59,262.93 L 200.02,263.25 L 201.13,263.58 L 201.27,263.67 L 201.50,264.17 L 201.61,264.47 L 201.76,265.31 L 201.91,266.21 L 201.98,268.49 L 201.98,269.64 L 201.78,271.68 L 201.71,272.13 L 201.52,272.81 L 201.15,273.40 L 201.10,273.44 L 200.76,273.46 L 200.54,273.46 L 199.91,273.43 L 199.20,273.39 L 197.08,273.17 L 195.93,273.05 L 193.16,272.70 L 191.72,272.51 L 188.59,272.07 L 187.02,271.84 L 183.85,271.36 L 182.30,271.12 L 179.41,270.64 L 178.02,270.40 L 175.72,269.96 L 173.25,269.40 L 172.60,269.22 L 171.77,269.05 L 171.43,269.01 L 171.15,269.28 L 171.08,269.49 L 171.28,270.40 L 172.05,272.71 L 172.24,273.26 L 172.73,274.17 L 173.00,274.60 L 173.68,275.29 L 174.06,275.61 L 175.01,276.14 L 176.80,276.81 L 177.56,277.03 L 179.67,277.55 L 180.81,277.81 L 183.52,278.38 L 186.34,278.95 L 192.76,280.08 L 194.35,280.35 L 197.45,280.83 L 198.96,281.06 L 201.72,281.44 L 203.04,281.61 L 205.24,281.85 L 207.64,282.00 L 208.80,282.00 L 210.60,282.34 L 211.41,282.57 L 212.57,283.42 L 213.07,283.92 L 213.66,285.38 L 214.00,288.31 L 214.00,288.87 L 213.91,289.79 L 213.84,290.22 L 213.53,290.90 L 213.34,291.21 L 212.72,291.67 L 212.36,291.87 L 211.33,292.13 L 210.76,292.24 L 209.22,292.31 L 208.38,292.32 L 206.24,292.23 L 205.08,292.16 L 202.24,291.92 L 197.09,291.41 L 195.12,291.20 L 191.49,290.86 L 189.75,290.70 L 186.84,290.48 L 186.17,290.43 L 185.02,290.36 L 184.48,290.33 L 183.61,290.30 L 183.22,290.29 L 182.69,290.30 L 182.31,290.36 L 182.25,290.42 L 182.25,290.77 L 182.28,290.98 L 182.44,291.56 L 183.40,293.80 L 183.74,294.46 L 184.43,295.41 L 184.81,295.85 L 185.83,296.48 L 186.41,296.77 L 188.09,297.26 L 188.57,297.37 L 189.71,297.61 L 191.72,297.99 L 192.65,298.15 L 195.17,298.55 L 196.50,298.75 L 199.54,299.18 L 208.83,300.36 L 210.26,300.52 L 212.66,300.84 L 213.79,301.00 L 215.64,301.34 L 216.50,301.52 L 217.86,301.93 L 218.48,302.15 L 219.39,302.66 L 219.80,302.94 L 220.33,303.60 L 220.56,303.95 L 220.77,304.79 L 220.84,305.24 L 220.78,306.30 L 220.46,308.18 L 219.78,311.29 L 209.39,310.70 L 207.96,310.62 L 205.36,310.53 L 204.11,310.50 L 202.05,310.51 L 201.11,310.53 L 199.82,310.63 L 199.56,310.66 L 199.21,310.74 L 199.00,310.88 L 199.00,311.21 L 199.72,312.21 L 200.17,312.73 L 201.51,313.90 L 202.22,314.47 L 203.80,315.50 L 206.00,316.55 L 206.69,316.76 L 208.30,317.14 L 209.15,317.31 L 211.13,317.62 L 212.17,317.76 L 214.57,318.01 L 215.84,318.12 L 218.74,318.30 L 220.26,318.38 L 223.72,318.50 L 225.52,318.55 L 229.61,318.62 L 231.73,318.64 L 236.50,318.66 L 244.50,318.62 L 246.97,318.60 L 251.23,318.55 L 253.26,318.53 L 256.72,318.46 L 258.36,318.42 L 261.13,318.33 L 262.43,318.28 L 264.60,318.16 L 265.62,318.09 L 267.29,317.92 L 268.07,317.84 L 269.35,317.63 L 270.54,317.41 M 344.71,281.37 L 346.02,280.75 L 348.43,279.23 L 349.60,278.44 L 351.71,276.63 L 352.73,275.69 L 354.50,273.64 L 355.34,272.59 L 356.73,270.36 L 357.38,269.24 L 358.36,266.90 L 358.80,265.73 L 359.34,263.35 L 359.55,262.16 L 359.60,259.79 L 359.09,256.34 L 358.72,254.97 L 357.33,252.41 L 356.55,251.18 L 354.50,249.03 L 353.42,248.04 L 350.97,246.54 L 347.12,245.29 L 343.00,244.74 L 342.98,249.12 L 342.97,249.92 L 342.81,251.87 L 342.71,252.89 L 342.37,255.20 L 342.00,257.57 L 340.82,262.93 L 340.18,265.64 L 338.63,270.99 L 338.23,272.28 L 337.39,274.72 L 336.12,278.04 L 333.14,285.13 L 336.32,284.49 L 336.76,284.40 L 337.97,284.05 L 338.61,283.84 L 340.10,283.31 L 341.62,282.74 M 351.99,342.07 L 351.03,341.77 L 349.02,340.96 L 348.02,340.52 L 346.12,339.52 L 345.20,339.01 L 343.65,337.97 L 342.00,336.50 L 341.43,335.81 L 339.90,334.63 L 339.07,334.07 L 336.94,333.12 L 335.80,332.67 L 332.97,331.91 L 327.85,330.93 L 325.83,330.63 L 321.35,329.58 L 320.29,329.30 L 318.37,328.72 L 316.06,327.88 L 315.11,327.47 L 313.82,326.83 L 313.26,326.54 L 312.68,326.05 L 312.46,325.82 L 312.48,325.36 L 313.06,324.59 L 313.26,324.41 L 314.08,323.90 L 314.54,323.63 L 315.78,323.01 L 320.29,321.12 L 322.18,320.43 L 326.22,319.56 L 328.26,319.21 L 332.44,319.02 L 334.53,319.02 L 338.62,319.52 L 344.38,321.04 L 345.57,321.49 L 347.78,322.64 L 348.85,323.25 L 350.79,324.68 L 351.73,325.43 L 353.37,327.08 L 354.14,327.92 L 355.43,329.72 L 356.02,330.63 L 356.90,332.49 L 357.29,333.43 L 357.73,335.30 L 357.89,336.23 L 357.83,338.03 L 357.15,340.58 L 356.85,341.23 L 356.38,342.07 L 356.14,342.42 L 355.55,342.73 L 355.22,342.83 L 354.24,342.69 L 353.67,342.57 M 147.00,338.92 L 145.54,338.25 L 143.14,336.87 L 142.00,336.16 L 140.11,334.53 L 139.21,333.66 L 137.63,331.59 L 135.40,327.78 L 134.62,326.25 L 133.64,323.10 L 133.24,321.53 L 133.03,318.38 L 133.02,316.82 L 133.57,313.81 L 135.27,309.58 L 135.62,308.95 L 136.27,307.91 L 136.59,307.43 L 137.16,306.67 L 137.43,306.33 L 137.93,305.86 L 138.16,305.65 L 138.59,305.46 L 138.79,305.40 L 139.16,305.49 L 139.33,305.57 L 139.63,305.93 L 139.78,306.15 L 140.03,306.78 L 140.36,308.05 L 140.46,308.54 L 141.06,309.82 L 141.42,310.50 L 142.52,312.12 L 143.12,312.96 L 144.64,314.83 L 147.36,317.84 L 148.56,319.09 L 150.47,321.27 L 151.35,322.32 L 152.73,324.25 L 153.37,325.20 L 154.34,327.06 L 155.50,330.00 L 155.99,331.51 L 157.16,334.69 L 157.45,335.44 L 157.98,336.75 L 158.66,338.25 L 160.05,341.00 L 155.78,340.98 L 155.19,340.98 L 153.76,340.81 L 153.02,340.70 L 151.43,340.36 L 149.84,339.99 M 164.60,336.75 L 164.41,336.44 L 163.95,335.52 L 163.72,335.02 L 163.24,333.84 L 161.98,330.00 L 161.51,328.23 L 160.48,325.33 L 159.92,323.95 L 158.46,321.45 L 157.65,320.20 L 155.42,317.57 L 154.80,316.88 L 153.36,315.39 L 150.85,312.93 L 149.76,311.88 L 147.97,310.10 L 147.14,309.25 L 145.89,307.84 L 145.33,307.18 L 144.61,306.10 L 144.32,305.60 L 144.13,304.82 L 144.10,304.46 L 144.44,303.93 L 144.67,303.69 L 145.52,303.37 L 146.02,303.23 L 147.39,303.08 L 150.03,303.00 L 151.86,303.00 L 154.99,303.33 L 156.49,303.56 L 159.18,304.43 L 160.50,304.95 L 163.05,306.48 L 167.05,309.65 L 168.19,310.69 L 170.12,312.90 L 171.03,314.03 L 172.46,316.39 L 173.12,317.58 L 174.06,320.01 L 174.46,321.22 L 174.89,323.65 L 175.04,324.86 L 174.95,327.23 L 174.84,328.40 L 174.22,330.64 L 173.85,331.74 L 172.70,333.78 L 170.36,336.54 L 169.55,337.30 L 168.34,338.25 L 167.79,338.63 L 166.94,338.85 L 166.54,338.86 L 165.81,338.34 L 165.44,337.99 M 175.42,337.67 L 175.32,337.38 L 175.31,336.54 L 175.33,336.08 L 175.56,334.97 L 175.84,333.82 L 176.92,331.12 L 177.52,329.77 L 178.98,327.30 L 179.35,326.73 L 180.10,325.77 L 181.19,324.70 L 183.89,322.69 L 187.22,325.60 L 188.13,326.40 L 190.30,328.13 L 190.82,328.54 L 191.80,329.27 L 193.02,330.13 L 195.50,331.76 L 193.00,333.87 L 192.66,334.15 L 191.75,334.74 L 191.26,335.03 L 190.10,335.63 L 188.89,336.21 L 186.06,337.28 L 184.63,337.78 L 181.82,338.52 L 181.14,338.67 L 179.90,338.87 L 178.29,339.00 L 177.64,339.00 L 176.48,338.61 L 175.96,338.37 M 222.00,234.87 L 219.57,234.67 L 214.87,234.18 L 212.56,233.93 L 208.14,233.34 L 205.98,233.03 L 201.92,232.35 L 199.94,232.00 L 196.30,231.24 L 194.54,230.85 L 191.38,230.03 L 189.87,229.62 L 187.27,228.75 L 186.04,228.32 L 184.06,227.42 L 181.85,226.05 L 181.26,225.57 L 180.52,224.91 L 180.22,224.60 L 180.04,224.12 L 180.02,223.87 L 180.38,223.32 L 181.50,222.15 L 181.84,221.82 L 182.95,221.13 L 183.57,220.79 L 185.21,220.09 L 186.09,219.73 L 188.24,219.03 L 189.38,218.68 L 192.02,217.97 L 193.39,217.62 L 196.49,216.92 L 198.10,216.57 L 201.64,215.88 L 203.46,215.54 L 207.41,214.87 L 213.78,213.90 L 228.64,211.77 L 234.57,218.02 L 235.39,218.88 L 237.48,220.87 L 238.59,221.90 L 241.03,224.03 L 242.27,225.09 L 244.77,227.11 L 248.25,229.72 L 249.32,230.46 L 251.26,231.86 L 252.19,232.54 L 253.72,233.69 L 254.43,234.22 L 255.39,234.99 L 256.00,235.58 L 256.00,235.63 L 255.74,235.70 L 255.57,235.73 L 255.00,235.79 L 254.36,235.84 L 252.28,235.89 L 251.13,235.91 L 248.22,235.90 L 246.69,235.89 L 243.24,235.83 L 239.70,235.75 L 232.08,235.46 L 230.22,235.38 L 226.71,235.19 L 225.00,235.09 M 259.00,235.24 L 259.00,234.98 L 259.75,234.25 L 261.56,233.16 L 262.36,232.79 L 263.22,232.12 L 263.36,231.94 L 263.44,231.55 L 263.44,231.35 L 263.21,230.88 L 263.05,230.64 L 262.48,230.05 L 262.16,229.74 L 261.23,229.00 L 260.72,228.60 L 259.42,227.67 L 257.00,226.00 L 254.78,224.49 L 250.51,221.14 L 248.42,219.44 L 244.65,215.90 L 242.85,214.14 L 239.87,210.73 L 239.19,209.90 L 238.03,208.30 L 236.63,206.06 L 235.83,204.59 L 234.66,201.59 L 234.14,200.08 L 233.52,197.06 L 233.27,195.56 L 233.18,192.62 L 233.20,191.17 L 233.61,188.40 L 233.88,187.05 L 234.79,184.55 L 235.30,183.34 L 236.69,181.20 L 237.43,180.18 L 239.27,178.49 L 242.51,176.56 L 243.64,176.09 L 245.46,174.83 L 246.30,174.15 L 247.52,172.56 L 248.04,171.73 L 248.57,169.91 L 248.51,167.05 L 248.35,166.30 L 247.47,164.68 L 246.96,163.87 L 245.63,162.39 L 244.94,161.70 L 243.49,160.68 L 241.50,160.00 L 241.21,160.00 L 240.54,159.81 L 240.20,159.68 L 239.44,159.26 L 238.67,158.79 L 237.02,157.32 L 236.21,156.52 L 234.70,154.62 L 232.90,151.58 L 232.42,150.54 L 231.75,148.42 L 231.45,147.36 L 231.13,145.21 L 231.01,144.13 L 231.02,141.97 L 231.07,140.90 L 231.43,138.77 L 231.65,137.71 L 232.34,135.62 L 232.72,134.59 L 233.74,132.59 L 234.29,131.60 L 235.62,129.70 L 237.98,127.01 L 239.22,125.77 L 242.10,123.34 L 242.79,122.78 L 244.07,121.85 L 245.65,120.86 L 246.49,120.42 L 247.75,119.25 L 248.32,118.63 L 249.04,117.15 L 249.34,116.38 L 249.55,114.66 L 249.59,113.78 L 249.29,111.89 L 249.08,110.94 L 248.30,108.97 L 247.85,107.98 L 246.59,105.99 L 245.91,105.00 L 244.20,103.08 L 241.14,100.34 L 236.50,96.76 L 244.14,97.22 L 245.85,97.33 L 249.01,97.83 L 250.54,98.14 L 253.34,99.03 L 254.69,99.53 L 257.12,100.80 L 258.28,101.48 L 260.31,103.11 L 261.28,103.97 L 262.90,105.94 L 263.67,106.97 L 264.87,109.28 L 265.41,110.47 L 266.18,113.09 L 266.81,117.36 L 266.86,118.26 L 266.86,119.89 L 266.84,120.68 L 266.68,122.10 L 266.57,122.78 L 266.21,124.02 L 266.00,124.61 L 265.44,125.70 L 265.12,126.23 L 264.32,127.20 L 263.89,127.68 L 262.84,128.58 L 262.29,129.02 L 260.96,129.87 L 258.66,131.14 L 257.08,131.93 L 254.65,133.43 L 253.54,134.17 L 251.97,135.66 L 251.28,136.41 L 250.47,137.99 L 250.00,140.59 L 250.00,141.84 L 250.22,143.73 L 250.38,144.59 L 251.07,145.94 L 251.50,146.58 L 252.87,147.70 L 255.93,149.47 L 257.33,150.17 L 259.81,152.05 L 260.99,153.05 L 263.00,155.47 L 263.94,156.74 L 265.42,159.63 L 266.99,164.42 L 267.24,165.52 L 267.52,167.59 L 267.63,168.60 L 267.62,170.53 L 267.57,171.48 L 267.25,173.32 L 267.05,174.24 L 266.39,176.03 L 266.02,176.93 L 265.01,178.74 L 264.46,179.65 L 263.08,181.52 L 262.33,182.46 L 260.55,184.44 L 257.42,187.57 L 256.46,188.48 L 254.90,190.03 L 254.17,190.78 L 253.05,192.09 L 252.54,192.73 L 251.84,193.91 L 251.55,194.49 L 251.26,195.63 L 251.17,196.21 L 251.28,197.42 L 251.38,198.05 L 251.86,199.43 L 252.15,200.15 L 253.00,201.81 L 254.65,204.72 L 255.10,205.48 L 255.85,206.73 L 256.21,207.32 L 256.83,208.26 L 257.43,209.13 L 258.49,210.16 L 259.05,210.58 L 260.43,211.02 L 263.40,211.44 L 267.29,211.85 L 274.42,212.67 L 277.88,213.08 L 284.15,213.89 L 287.18,214.30 L 292.58,215.10 L 295.18,215.51 L 299.73,216.31 L 301.90,216.71 L 305.60,217.50 L 307.34,217.90 L 310.18,218.68 L 311.50,219.08 L 313.49,219.86 L 315.53,221.03 L 315.98,221.40 L 316.56,222.36 L 316.80,222.86 L 316.95,223.94 L 316.97,224.48 L 316.68,225.51 L 315.75,226.78 L 315.45,227.03 L 314.38,227.57 L 313.77,227.85 L 312.16,228.45 L 311.29,228.75 L 309.24,229.36 L 308.16,229.67 L 305.75,230.29 L 303.27,230.91 L 297.65,232.04 L 289.00,233.41 L 286.95,233.67 L 283.01,234.13 L 281.07,234.35 L 277.41,234.73 L 275.62,234.90 L 272.31,235.19 L 270.72,235.32 L 267.86,235.51 L 266.50,235.59 L 264.18,235.68 L 263.09,235.72 L 261.39,235.70 L 260.62,235.68 L 259.62,235.55 L 259.21,235.48 M 218.03,203.93 L 216.30,203.14 L 213.34,201.46 L 211.94,200.60 L 209.62,198.74 L 208.54,197.79 L 206.80,195.71 L 204.80,192.29 L 204.16,190.82 L 203.51,188.01 L 203.30,186.62 L 203.53,183.92 L 203.76,182.57 L 204.89,179.91 L 207.59,175.89 L 208.53,174.77 L 210.00,172.50 L 210.31,171.97 L 210.73,171.06 L 211.00,170.06 L 211.00,169.46 L 210.39,168.18 L 209.99,167.55 L 208.71,166.32 L 208.00,165.72 L 206.22,164.68 L 203.17,163.47 L 202.14,163.18 L 200.35,162.13 L 199.51,161.53 L 198.11,159.96 L 197.46,159.12 L 196.47,157.16 L 196.02,156.14 L 195.47,153.92 L 195.25,152.79 L 195.15,150.43 L 195.16,149.24 L 195.55,146.87 L 195.80,145.69 L 196.70,143.43 L 198.64,140.31 L 199.51,139.23 L 201.46,137.53 L 202.47,136.75 L 204.79,135.61 L 206.01,135.11 L 208.83,134.49 L 213.75,134.08 L 214.47,134.07 L 215.69,134.09 L 216.26,134.11 L 217.16,134.21 L 217.58,134.26 L 218.18,134.42 L 218.44,134.51 L 218.73,134.74 L 218.84,134.86 L 218.83,135.16 L 218.79,135.31 L 218.47,135.68 L 218.28,135.87 L 217.66,136.31 L 216.40,137.05 L 215.24,137.67 L 213.27,139.23 L 212.35,140.05 L 210.93,141.90 L 210.30,142.85 L 209.53,144.86 L 209.20,147.89 L 209.26,148.67 L 209.50,149.84 L 209.65,150.38 L 210.17,151.22 L 210.49,151.62 L 211.47,152.33 L 213.65,153.50 L 214.68,154.00 L 216.50,155.02 L 217.38,155.54 L 218.90,156.63 L 219.62,157.19 L 220.86,158.37 L 221.45,158.97 L 222.41,160.26 L 222.87,160.92 L 223.58,162.34 L 223.91,163.07 L 224.39,164.65 L 224.60,165.46 L 224.85,167.22 L 225.00,170.09 L 225.00,171.08 L 224.86,172.80 L 224.76,173.63 L 224.39,175.17 L 224.17,175.93 L 223.50,177.46 L 222.13,179.94 L 221.34,181.23 L 219.90,183.87 L 219.58,184.49 L 219.07,185.56 L 218.58,186.76 L 218.30,187.64 L 218.23,189.74 L 218.28,190.84 L 218.83,193.27 L 219.19,194.51 L 220.32,197.11 L 222.64,201.07 L 223.13,201.78 L 223.88,202.97 L 224.21,203.52 L 224.64,204.40 L 224.81,204.80 L 224.90,205.38 L 224.90,205.64 L 224.64,205.92 L 224.47,206.03 L 223.85,206.04 L 223.49,206.00 L 222.50,205.73 L 221.95,205.56 L 220.56,205.02 L 219.82,204.72 M 270.01,199.90 L 270.01,199.58 L 270.22,198.66 L 270.36,198.16 L 270.80,196.96 L 271.29,195.70 L 272.78,192.72 L 273.57,191.20 L 275.37,188.25 L 278.02,184.63 L 278.93,183.60 L 281.49,181.40 L 282.14,180.88 L 283.44,179.96 L 285.21,178.89 L 286.08,178.45 L 287.28,177.73 L 287.80,177.39 L 288.41,176.70 L 288.66,176.34 L 288.85,175.46 L 288.81,173.70 L 288.75,173.06 L 288.49,172.03 L 288.33,171.55 L 287.79,170.74 L 287.47,170.35 L 286.55,169.63 L 284.61,168.49 L 283.89,168.12 L 282.60,167.22 L 281.99,166.74 L 280.92,165.67 L 279.90,164.55 L 278.49,161.90 L 277.88,160.52 L 277.29,157.52 L 277.09,156.00 L 277.28,152.87 L 277.47,151.31 L 278.41,148.26 L 278.98,146.77 L 280.66,144.04 L 281.59,142.74 L 283.97,140.53 L 284.61,140.03 L 286.02,139.15 L 288.32,138.07 L 288.99,137.81 L 290.68,137.45 L 291.56,137.30 L 293.54,137.13 L 295.56,137.01 L 299.76,137.26 L 300.76,137.36 L 302.59,137.67 L 303.46,137.83 L 304.90,138.26 L 305.56,138.48 L 306.44,139.01 L 306.93,139.91 L 306.93,139.99 L 306.42,140.38 L 306.10,140.60 L 305.07,141.21 L 304.51,141.54 L 303.09,142.30 L 300.68,143.51 L 299.48,144.10 L 297.43,145.34 L 296.46,145.97 L 294.87,147.29 L 294.14,147.96 L 293.03,149.31 L 292.54,149.98 L 291.93,151.33 L 291.69,152.00 L 291.60,153.32 L 291.61,153.96 L 292.03,155.20 L 292.31,155.81 L 293.27,156.94 L 295.32,158.47 L 296.74,159.28 L 298.91,160.80 L 299.90,161.57 L 301.38,163.19 L 302.05,164.04 L 303.01,166.00 L 304.11,169.60 L 304.36,170.74 L 304.67,172.52 L 304.78,173.35 L 304.78,174.78 L 304.74,175.48 L 304.43,176.91 L 303.58,179.43 L 303.02,180.89 L 301.59,183.31 L 300.80,184.46 L 298.76,186.38 L 297.65,187.29 L 294.82,188.87 L 294.06,189.25 L 292.34,189.97 L 289.48,191.01 L 287.80,191.57 L 284.30,192.96 L 282.56,193.68 L 279.25,195.26 L 277.65,196.06 L 274.88,197.64 L 274.24,198.02 L 273.13,198.77 L 271.75,199.82 L 271.38,200.13 L 270.86,200.52 L 270.63,200.68 L 270.33,200.77 L 270.20,200.77 L 270.07,200.56 L 270.02,200.42 Z" fill="rgba(46,27,20,1)"/>
</g>
</svg>